Rise.of.The.Planet.of.The.Apes.2011.HDRip.SubIta. [[url="http://italiastarfilm.com/"]WWW.ItaliaStarFilm.Com[/url]]
[pre]General
Complete name : WWW.ItaliaStarFilm.Com - Rise.of.The.Planet.of.The.Apes.2011.BRRip.SubIta.avi
Format : AVI
Format/Info : Audio Video Interleave
File size : 713 MiB
Duration : 1h 44mn
Overall bit rate : 953 Kbps
Writing application : VirtualDubMod 1.5.10.2 (build 2542/release)
Writing library : VirtualDubMod build 2542/release
Video
ID : 0
Format : MPEG-4 Visual
Format profile : Advanced Simple@L5
Format settings, BVOP : 1
Format settings, QPel : No
Format settings, GMC : No warppoints
Format settings, Matrix : Default (H.263)
Muxing mode : Packed bitstream
Codec ID : XVID
Codec ID/Hint : XviD
Duration : 1h 44mn
Bit rate : 816 Kbps
Width : 640 pixels
Height : 272 pixels
Display aspect ratio : 2.35:1
Frame rate : 23.976 fps
Color space : YUV
Chroma subsampling : 4:2:0
Bit depth : 8 bits
Scan type : Progressive
Compression mode : Lossy
Bits/(Pixel*Frame) : 0.195
Stream size : 610 MiB (86%)
Writing library : XviD 62
Audio
ID : 1
Format : MPEG Audio
Format version : Version 1
Format profile : Layer 3
Codec ID : 55
Codec ID/Hint : MP3
Duration : 1h 44mn
Bit rate mode : Constant
Bit rate : 128 Kbps
Channel(s) : 2 channels
Sampling rate : 48.0 KHz
Compression mode : Lossy
Stream size : 95.8 MiB (13%)
Alignment : Aligned on interleaves
Interleave, duration : 42 ms (1.00 video frame)
Interleave, preload duration : 504 ms
Writing library : LAME3.97 
Encoding settings : -m s -V 4 -q 2 -lowpass 17 -b 128
[/pre]